<svg width="29" height="29" viewBox="0 0 29 29" fill="none" xmlns="http://www.w3.org/2000/svg">
<path d="M23.4447 15.1945C23.4447 21.0278 19.3614 23.9445 14.5081 25.6361C14.2539 25.7222 13.9779 25.7181 13.7264 25.6245C8.86141 23.9445 4.77808 21.0278 4.77808 15.1945V7.02779C4.77808 6.71837 4.90099 6.42162 5.11979 6.20283C5.33858 5.98404 5.63532 5.86112 5.94474 5.86112C8.27808 5.86112 11.1947 4.46112 13.2247 2.68779C13.4719 2.47662 13.7863 2.3606 14.1114 2.3606C14.4365 2.3606 14.7509 2.47662 14.9981 2.68779C17.0397 4.47279 19.9447 5.86112 22.2781 5.86112C22.5875 5.86112 22.8842 5.98404 23.103 6.20283C23.3218 6.42162 23.4447 6.71837 23.4447 7.02779V15.1945Z" stroke="#717182" stroke-width="2.33333" stroke-linecap="round" stroke-linejoin="round"/>
</svg>
